<mxfile host="app.diagrams.net" modified="2021-04-26T09:29:29.716Z" agent="5.0 (X11; Linux x86_64) AppleWebKit/537.36 (KHTML, like Gecko) Chrome/87.0.4280.141 Safari/537.36" etag="EXeo35o0oh-VmMpNEbSF" version="14.6.3" type="github">
  <diagram id="iddFJ_SQb06On4Mt9h4G" name="Page-1">
    <mxGraphModel dx="929" dy="1723" grid="1" gridSize="10" guides="1" tooltips="1" connect="1" arrows="1" fold="1" page="1" pageScale="1" pageWidth="850" pageHeight="1100" math="0" shadow="0">
      <root>
        <mxCell id="0" />
        <mxCell id="1" parent="0" />
        <mxCell id="uCyq7q9-ALKiOMqDTIcN-15" value="" style="rounded=1;whiteSpace=wrap;html=1;" vertex="1" parent="1">
          <mxGeometry x="1200" y="220" width="290" height="420" as="geometry" />
        </mxCell>
        <mxCell id="uCyq7q9-ALKiOMqDTIcN-14" value="" style="rounded=1;whiteSpace=wrap;html=1;" vertex="1" parent="1">
          <mxGeometry x="810" y="220" width="290" height="420" as="geometry" />
        </mxCell>
        <mxCell id="uCyq7q9-ALKiOMqDTIcN-13" value="" style="rounded=1;whiteSpace=wrap;html=1;" vertex="1" parent="1">
          <mxGeometry x="180" y="-50" width="610" height="410" as="geometry" />
        </mxCell>
        <mxCell id="wNFaNqd2y9wOFxrwqq7m-5" style="edgeStyle=orthogonalEdgeStyle;rounded=0;orthogonalLoop=1;jettySize=auto;html=1;exitX=1;exitY=0.5;exitDx=0;exitDy=0;entryX=0;entryY=0.5;entryDx=0;entryDy=0;" parent="1" source="wNFaNqd2y9wOFxrwqq7m-1" target="wNFaNqd2y9wOFxrwqq7m-3" edge="1">
          <mxGeometry relative="1" as="geometry">
            <Array as="points">
              <mxPoint x="550" y="270" />
              <mxPoint x="550" y="50" />
            </Array>
          </mxGeometry>
        </mxCell>
        <mxCell id="wNFaNqd2y9wOFxrwqq7m-1" value="&lt;font style=&quot;font-size: 14px&quot;&gt;&quot;reqwait&quot;&lt;/font&gt;" style="rounded=1;whiteSpace=wrap;html=1;" parent="1" vertex="1">
          <mxGeometry x="210" y="250" width="120" height="40" as="geometry" />
        </mxCell>
        <mxCell id="wNFaNqd2y9wOFxrwqq7m-2" value="rcu_gp_kthread" style="text;html=1;resizable=0;autosize=1;align=center;verticalAlign=middle;points=[];fillColor=none;strokeColor=none;rounded=0;" parent="1" vertex="1">
          <mxGeometry x="220" y="210" width="100" height="20" as="geometry" />
        </mxCell>
        <mxCell id="wNFaNqd2y9wOFxrwqq7m-3" value="&lt;font style=&quot;font-size: 14px&quot;&gt;&quot;start&quot;&lt;/font&gt;" style="rounded=1;whiteSpace=wrap;html=1;" parent="1" vertex="1">
          <mxGeometry x="592.5" y="30" width="120" height="40" as="geometry" />
        </mxCell>
        <mxCell id="wNFaNqd2y9wOFxrwqq7m-4" value="rcu_gp_init" style="text;html=1;resizable=0;autosize=1;align=center;verticalAlign=middle;points=[];fillColor=none;strokeColor=none;rounded=0;" parent="1" vertex="1">
          <mxGeometry x="617.5" y="-10" width="70" height="20" as="geometry" />
        </mxCell>
        <mxCell id="wNFaNqd2y9wOFxrwqq7m-9" value="&lt;span&gt;&lt;font style=&quot;font-size: 10px&quot;&gt;RCU_GP_WAIT_GPS&lt;/font&gt;&lt;/span&gt;" style="rounded=0;whiteSpace=wrap;html=1;" parent="1" vertex="1">
          <mxGeometry x="360" y="160" width="130" height="20" as="geometry" />
        </mxCell>
        <mxCell id="wNFaNqd2y9wOFxrwqq7m-10" value="&lt;font style=&quot;font-size: 10px&quot;&gt;RCU_GP_DONE_GPS&lt;/font&gt;" style="rounded=0;whiteSpace=wrap;html=1;" parent="1" vertex="1">
          <mxGeometry x="360" y="220" width="125" height="20" as="geometry" />
        </mxCell>
        <mxCell id="wNFaNqd2y9wOFxrwqq7m-11" value="RCU_GP_INIT" style="rounded=0;whiteSpace=wrap;html=1;" parent="1" vertex="1">
          <mxGeometry x="590" y="140" width="125" height="20" as="geometry" />
        </mxCell>
        <mxCell id="wNFaNqd2y9wOFxrwqq7m-13" value="RCU_GP_ONOFF" style="rounded=0;whiteSpace=wrap;html=1;" parent="1" vertex="1">
          <mxGeometry x="590" y="100" width="125" height="20" as="geometry" />
        </mxCell>
        <mxCell id="wNFaNqd2y9wOFxrwqq7m-14" value="RCU_GP_INIT" style="rounded=0;whiteSpace=wrap;html=1;" parent="1" vertex="1">
          <mxGeometry x="590" y="180" width="125" height="20" as="geometry" />
        </mxCell>
        <mxCell id="wNFaNqd2y9wOFxrwqq7m-19" style="edgeStyle=orthogonalEdgeStyle;rounded=0;orthogonalLoop=1;jettySize=auto;html=1;entryX=0;entryY=0.5;entryDx=0;entryDy=0;" parent="1" target="wNFaNqd2y9wOFxrwqq7m-17" edge="1">
          <mxGeometry relative="1" as="geometry">
            <mxPoint x="830" y="-40" as="sourcePoint" />
          </mxGeometry>
        </mxCell>
        <mxCell id="wNFaNqd2y9wOFxrwqq7m-22" style="edgeStyle=orthogonalEdgeStyle;rounded=0;orthogonalLoop=1;jettySize=auto;html=1;exitX=1;exitY=0.5;exitDx=0;exitDy=0;entryX=0;entryY=0.5;entryDx=0;entryDy=0;" parent="1" source="wNFaNqd2y9wOFxrwqq7m-15" target="wNFaNqd2y9wOFxrwqq7m-20" edge="1">
          <mxGeometry relative="1" as="geometry" />
        </mxCell>
        <mxCell id="wNFaNqd2y9wOFxrwqq7m-15" value="&lt;font style=&quot;font-size: 14px&quot;&gt;&quot;cpustart&quot;&lt;/font&gt;" style="rounded=1;whiteSpace=wrap;html=1;" parent="1" vertex="1">
          <mxGeometry x="592.5" y="250" width="120" height="40" as="geometry" />
        </mxCell>
        <mxCell id="wNFaNqd2y9wOFxrwqq7m-16" value="__note_gp_changes" style="text;html=1;resizable=0;autosize=1;align=center;verticalAlign=middle;points=[];fillColor=none;strokeColor=none;rounded=0;" parent="1" vertex="1">
          <mxGeometry x="592.5" y="220" width="120" height="20" as="geometry" />
        </mxCell>
        <mxCell id="wNFaNqd2y9wOFxrwqq7m-17" value="&lt;font style=&quot;font-size: 14px&quot;&gt;&quot;reqwaitsig&quot;&lt;/font&gt;" style="rounded=1;whiteSpace=wrap;html=1;" parent="1" vertex="1">
          <mxGeometry x="890" y="-60" width="120" height="40" as="geometry" />
        </mxCell>
        <mxCell id="wNFaNqd2y9wOFxrwqq7m-18" value="__note_gp_changes" style="text;html=1;resizable=0;autosize=1;align=center;verticalAlign=middle;points=[];fillColor=none;strokeColor=none;rounded=0;" parent="1" vertex="1">
          <mxGeometry x="890" y="-100" width="120" height="20" as="geometry" />
        </mxCell>
        <mxCell id="wNFaNqd2y9wOFxrwqq7m-20" value="&lt;font style=&quot;font-size: 14px&quot;&gt;&quot;fqswait&quot;&lt;/font&gt;" style="rounded=1;whiteSpace=wrap;html=1;" parent="1" vertex="1">
          <mxGeometry x="880" y="250" width="120" height="40" as="geometry" />
        </mxCell>
        <mxCell id="wNFaNqd2y9wOFxrwqq7m-21" value="rcu_gp_fqs_loop" style="text;html=1;resizable=0;autosize=1;align=center;verticalAlign=middle;points=[];fillColor=none;strokeColor=none;rounded=0;" parent="1" vertex="1">
          <mxGeometry x="890" y="220" width="100" height="20" as="geometry" />
        </mxCell>
        <mxCell id="uCyq7q9-ALKiOMqDTIcN-1" value="&lt;font style=&quot;font-size: 14px&quot;&gt;&quot;fqsstart&quot;&lt;/font&gt;" style="rounded=1;whiteSpace=wrap;html=1;" vertex="1" parent="1">
          <mxGeometry x="885" y="460" width="120" height="40" as="geometry" />
        </mxCell>
        <mxCell id="uCyq7q9-ALKiOMqDTIcN-3" value="&lt;span style=&quot;font-size: 14px&quot;&gt;&quot;fqsend&quot;&lt;/span&gt;" style="rounded=1;whiteSpace=wrap;html=1;" vertex="1" parent="1">
          <mxGeometry x="885" y="570" width="120" height="40" as="geometry" />
        </mxCell>
        <mxCell id="uCyq7q9-ALKiOMqDTIcN-4" value="处理以上三种情况" style="text;html=1;resizable=0;autosize=1;align=center;verticalAlign=middle;points=[];fillColor=none;strokeColor=none;rounded=0;" vertex="1" parent="1">
          <mxGeometry x="890" y="530" width="110" height="20" as="geometry" />
        </mxCell>
        <mxCell id="uCyq7q9-ALKiOMqDTIcN-6" value="RCU_GP_WAIT_FQS" style="rounded=0;whiteSpace=wrap;html=1;" vertex="1" parent="1">
          <mxGeometry x="880" y="320" width="125" height="20" as="geometry" />
        </mxCell>
        <mxCell id="uCyq7q9-ALKiOMqDTIcN-8" value="RCU_GP_DOING_FQS" style="rounded=0;whiteSpace=wrap;html=1;" vertex="1" parent="1">
          <mxGeometry x="877.5" y="400" width="125" height="20" as="geometry" />
        </mxCell>
        <mxCell id="uCyq7q9-ALKiOMqDTIcN-9" value="由于qs走一遍、过载、FQS被唤醒" style="text;html=1;resizable=0;autosize=1;align=center;verticalAlign=middle;points=[];fillColor=none;strokeColor=none;rounded=0;" vertex="1" parent="1">
          <mxGeometry x="845" y="360" width="190" height="20" as="geometry" />
        </mxCell>
        <mxCell id="uCyq7q9-ALKiOMqDTIcN-16" value="RCU_GP_CLEANUP" style="rounded=0;whiteSpace=wrap;html=1;" vertex="1" parent="1">
          <mxGeometry x="1282.5" y="280" width="125" height="20" as="geometry" />
        </mxCell>
        <mxCell id="uCyq7q9-ALKiOMqDTIcN-17" value="RCU_GP_CLEANED" style="rounded=0;whiteSpace=wrap;html=1;" vertex="1" parent="1">
          <mxGeometry x="1282.5" y="570" width="125" height="20" as="geometry" />
        </mxCell>
        <mxCell id="uCyq7q9-ALKiOMqDTIcN-18" value="善后" style="text;html=1;resizable=0;autosize=1;align=center;verticalAlign=middle;points=[];fillColor=none;strokeColor=none;rounded=0;" vertex="1" parent="1">
          <mxGeometry x="1315" y="180" width="40" height="20" as="geometry" />
        </mxCell>
        <mxCell id="uCyq7q9-ALKiOMqDTIcN-19" value="&lt;font style=&quot;font-size: 14px&quot;&gt;&quot;end&quot;&lt;/font&gt;" style="rounded=1;whiteSpace=wrap;html=1;" vertex="1" parent="1">
          <mxGeometry x="1285" y="330" width="120" height="40" as="geometry" />
        </mxCell>
      </root>
    </mxGraphModel>
  </diagram>
</mxfile>
